<?xml version="1.0" encoding="UTF-8" standalone="no"?>
<!-- Created with Inkscape (http://www.inkscape.org/) -->

<svg
   xmlns:dc="http://purl.org/dc/elements/1.1/"
   xmlns:cc="http://creativecommons.org/ns#"
   xmlns:rdf="http://www.w3.org/1999/02/22-rdf-syntax-ns#"
   xmlns:svg="http://www.w3.org/2000/svg"
   xmlns="http://www.w3.org/2000/svg"
   version="1.1"
   width="500"
   height="500"
   id="svg2"
   xml:space="preserve"><metadata
     id="metadata8"><rdf:RDF><cc:Work
         rdf:about=""><dc:format>image/svg+xml</dc:format><dc:type
           rdf:resource="http://purl.org/dc/dcmitype/StillImage" /><dc:title></dc:title></cc:Work></rdf:RDF></metadata><defs
     id="defs6" /><g
     transform="matrix(1.25,0,0,-1.25,0,500)"
     id="g10"><g
       transform="matrix(0.04060752,0,0,0.04060752,40.490398,37.83503)"
       id="g12"
       style="fill:#ffffff"><path
         d="m 4355.42,1822.14 c -104.61,30.09 -213.73,-30.58 -243.73,-135.51 l -225.2,-787.704 -225.2,787.704 c -24.09,84.29 -99.37,139.08 -182.23,142.15 -4.19,0.38 -8.28,0.16 -12.45,0.27 -4.16,-0.11 -8.26,0.11 -12.44,-0.27 -82.86,-3.07 -158.14,-57.86 -182.24,-142.15 L 3047.67,902.195 2823.41,1686.63 c -30,104.93 -139.12,165.6 -243.73,135.51 -104.62,-30.09 -165.1,-139.53 -135.11,-244.46 L 2854.68,143.16 c 23.73,-82.9803 97.05,-137.42953 178.38,-142.05844 4.92,-0.460935 9.73,-0.230466 14.61,-0.32031 4.88,0.089844 9.69,-0.140625 14.61,0.32031 81.33,4.62891 154.65,59.07814 178.37,142.05844 L 3466.61,933.535 3692.57,143.16 C 3716.5,59.4609 3790.9,4.83203 3873.08,1.05859 c 4.51,-0.417965 8.92,-0.187496 13.41,-0.296871 4.49,0.109375 8.9,-0.121094 13.42,0.296871 82.17,3.77344 156.57,58.40231 180.5,142.10141 l 410.11,1434.52 c 30,104.93 -30.49,214.37 -135.1,244.46"
         id="path14"
         style="fill:#ffffff;fill-opacity:1;fill-rule:nonzero;stroke:none" /><path
         d="m 4742.45,217.32 c 0,-120.988 95.66,-216.648125 216.65,-216.648125 120.98,0 216.65,95.660125 216.65,216.648125 l 0,1395.97 c 0,120.98 -95.67,216.65 -216.65,216.65 -120.99,0 -216.65,-95.67 -216.65,-216.65 l 0,-1395.97"
         id="path16"
         style="fill:#ffffff;fill-opacity:1;fill-rule:nonzero;stroke:none" /><path
         d="M 1763.99,216.648 C 1763.99,95.6602 1859.65,0 1980.64,0 c 120.98,0 216.65,95.6602 216.65,216.648 l 0,1395.962 c 0,120.99 -95.67,216.65 -216.65,216.65 -120.99,0 -216.65,-95.66 -216.65,-216.65 l 0,-1395.962"
         id="path18"
         style="fill:#ffffff;fill-opacity:1;fill-rule:nonzero;stroke:none" /><path
         d="m 6326.12,920.926 560.89,560.894 c 80.37,80.37 80.37,207.47 0,287.84 -80.37,80.38 -207.47,80.37 -287.84,0 l -669.56,-669.56 0,513.19 c 0,120.98 -95.66,216.65 -216.64,216.65 -120.99,0 -216.65,-95.67 -216.65,-216.65 l 0,-1395.97 c 0,-120.988 95.66,-216.648125 216.65,-216.648125 120.98,0 216.64,95.660125 216.64,216.648125 l 0,307.102 108.66,108.648 554.34,-564.0817 c 79.66,-81.0586 206.76,-82.168 287.83,-2.5 81.07,79.6717 82.17,206.7617 2.5,287.8317 l -556.82,566.606"
         id="path20"
         style="fill:#ffffff;fill-opacity:1;fill-rule:nonzero;stroke:none" /><path
         d="m 826.188,915.691 -0.012,0.075 -392.875,0 0,520.704 385.238,0 c 143.918,0 260.581,-116.67 260.581,-260.58 0,-141.34 -112.589,-256.117 -252.932,-260.199 z M 1518.05,1179 c 0,349.27 -276.3,633.27 -622.14,647.23 l 0.266,1.34 -679.524,0 C 95.6641,1827.57 0,1731.9 0,1610.92 L 0,219.699 C 0,98.7109 95.6641,3.03906 216.652,3.03906 c 120.989,0 216.649,95.67184 216.649,216.65994 l 0,310.602 462.875,0 -0.266,1.469 c 345.84,13.968 622.14,297.96 622.14,647.23"
         id="path22"
         style="fill:#ffffff;fill-opacity:1;fill-rule:nonzero;stroke:none" /></g><text
       x="21.310734"
       y="-25.57287"
       transform="scale(1,-1)"
       id="text2999"
       xml:space="preserve"
       style="font-size:32px;font-style:normal;font-variant:normal;font-weight:normal;font-stretch:normal;line-height:125%;letter-spacing:0px;word-spacing:0px;fill:#000000;fill-opacity:1;stroke:none;font-family:Andale Mono;-inkscape-font-specification:Andale Mono"><tspan
         x="21.310734"
         y="-25.57287"
         id="tspan3001"
         style="font-size:51.20000076px;font-style:normal;font-variant:normal;font-weight:bold;font-stretch:normal;font-family:gargi;-inkscape-font-specification:gargi Bold" /></text>
</g></svg>